<svg id="Layer_1" data-name="Layer 1" xmlns="http://www.w3.org/2000/svg" viewBox="0 0 979.91 205.83"><defs><style>.cls-1{fill:#1c1c1c;}</style></defs><path class="cls-1" d="M232.26,37.46H198.68l-67,166.9h45.75l8.83-24.14h57.93l8.12,24.14h46.27ZM198,146.43l17.15-57,.71.2L233,146.43Z"/><path class="cls-1" d="M348.13,166.92V37.46H305.52v166.9h92V166.92Z"/><path class="cls-1" d="M487,120.66l52.75-79.44,2.54-3.76H497.68L450.5,112.54H450V37.46H407.38v166.9H450V132.23h.51L496,204.36h49.82Z"/><path class="cls-1" d="M634.14,37.46l-25.06,67-24.86-67H538l1.82,3.76,48.1,102.47v60.67h42.61V143.69L679.9,37.46Z"/><path class="cls-1" d="M769,147.55c25.67-4.47,41.5-26.18,41.5-52.56,0-23.64-12.69-43.32-30.64-51.44-8.83-3.85-22.12-6.09-39.47-6.09H685.78v166.9h40.79V150.49h.51l38.55,53.87h48.7ZM742.3,121.37H726.47V74.9H742.7c16,0,26.89,8.12,26.89,22.53,0,16-10.35,23.94-27.29,23.94Z"/><path class="cls-1" d="M821.74,37.46v166.9h42.61V37.46Z"/><path class="cls-1" d="M976,74.9V37.46H883.32v166.9H976V166.92H924.11V138.31h50.32V100.87H924.11v-26Z"/><path class="cls-1" d="M36.68,69.87a12.84,12.84,0,0,0-1.6-2C32,64.65,20.42,52.1,20.42,52.1c-2-2.06-5-5.27-7.23-8a16.79,16.79,0,0,1-3.53-6.88A271.28,271.28,0,0,1,4,2.4a.87.87,0,0,1,1.47-.7L51,43.51l.63.57h0c.89.94,1.64,1.69,2.46,2.6a34.16,34.16,0,0,1,5.17,8A89.77,89.77,0,0,1,64.13,67l7.58,27.93c.13.45.33,1.19.46,1.64L74,103.05c.12.45.32,1.19.45,1.64l4,14.13c.12.45.33,1.18.46,1.63l3.8,13.22c.13.44.34,1.18.47,1.63l3,10.36c.13.45.34,1.19.48,1.64l1.55,5.28c.13.45.29,1,.34,1.27s.19.46.31.46.34-.36.51-.79L134.06,37.76a1.33,1.33,0,0,1,1.16-.79h42.64a.53.53,0,0,1,.53.78l-67,165.7a1.36,1.36,0,0,1-1.16.79H67.8a1.27,1.27,0,0,1-1.12-.81l-26.18-78a70.17,70.17,0,0,0-4.42-10.1,50.1,50.1,0,0,0-5.25-8c-3.53-4.41-8.52-10.81-11.78-15a20,20,0,0,1-4-9.64L11,55.84a.89.89,0,0,1,1.48-.55l7.07,7.37,1.16,1.24,23.13,25c.31.34.46.26.32-.19C44.13,88.75,39.79,74.7,36.68,69.87Z"/></svg>